<svg xmlns="http://www.w3.org/2000/svg" xmlns:xlink="http://www.w3.org/1999/xlink" viewBox="0 0 4998.64 2911.5"><defs><style>.cls-1{fill:url(#linear-gradient);}.cls-2{fill:url(#linear-gradient-2);}.cls-3{fill:url(#linear-gradient-3);}.cls-4,.cls-5,.cls-9{fill:none;}.cls-5{stroke:#000;}.cls-5,.cls-9{stroke-miterlimit:22.93;stroke-width:0.57px;}.cls-6{mask:url(#mask);}.cls-7{clip-path:url(#clip-path);}.cls-8{fill:#1a1a1a;fill-rule:evenodd;}.cls-9{stroke:#332c2b;}.cls-10{mask:url(#mask-2);}.cls-11{clip-path:url(#clip-path-2);}.cls-12{mask:url(#mask-3);}.cls-13{clip-path:url(#clip-path-3);}</style><linearGradient id="linear-gradient" x1="-10508.14" y1="4878.71" x2="-9673.54" y2="3970.73" gradientTransform="translate(13985.2 -2849.07)" gradientUnits="userSpaceOnUse"><stop offset="0" stop-color="#fff"/><stop offset="1"/></linearGradient><linearGradient id="linear-gradient-2" x1="-9309.14" y1="3119.5" x2="-10393.95" y2="4764.57" gradientTransform="translate(13546.76 -2849.07)" xlink:href="#linear-gradient"/><linearGradient id="linear-gradient-3" x1="-11184.47" y1="4910.91" x2="-8823" y2="3402.95" gradientTransform="translate(12942.17 -2849.07)" xlink:href="#linear-gradient"/><mask id="mask" x="3000.53" y="2.69" width="1997.72" height="2909.23" maskUnits="userSpaceOnUse"><g transform="translate(0 -4.08)"><rect class="cls-1" x="3000.53" y="6.77" width="1997.71" height="2909.23"/></g></mask><clipPath id="clip-path" transform="translate(0 -4.08)"><rect class="cls-4" x="3000.53" y="6.77" width="1997.72" height="2909.23"/></clipPath><mask id="mask-2" x="1910.05" y="-3.74" width="3088.66" height="2915.66" maskUnits="userSpaceOnUse"><g transform="translate(0 -4.08)"><rect class="cls-2" x="1910.05" y="0.34" width="3088.66" height="2915.66"/></g></mask><clipPath id="clip-path-2" transform="translate(0 -4.08)"><rect class="cls-4" x="1910.05" y="0.34" width="3088.66" height="2915.66"/></clipPath><mask id="mask-3" x="406.34" y="-4.08" width="4593.95" height="2916" maskUnits="userSpaceOnUse"><g transform="translate(0 -4.08)"><rect class="cls-3" x="406.34" width="4593.95" height="2916"/></g></mask><clipPath id="clip-path-3" transform="translate(0 -4.08)"><rect class="cls-4" x="406.34" width="4593.95" height="2916"/></clipPath></defs><g id="Camada_2" data-name="Camada 2"><g id="Layer_1" data-name="Layer 1"><rect x="0.28" y="2.75" width="4997.26" height="2908.47"/><rect class="cls-5" x="0.28" y="2.75" width="4997.26" height="2908.47"/><g class="cls-6"><g class="cls-7"><path class="cls-8" d="M4997.54,6.82c-83.28,1151.55-730.63,2187.89-1730,2769.53q-129.57,75.42-263.89,139h668c753.7-532,1233.64-1362.4,1325.84-2267.71Z" transform="translate(0 -4.08)"/><path class="cls-9" d="M4997.54,6.82c-83.28,1151.55-730.63,2187.89-1730,2769.53q-129.57,75.42-263.89,139h668c753.7-532,1233.64-1362.4,1325.84-2267.71Z" transform="translate(0 -4.08)"/></g></g><g class="cls-10"><g class="cls-11"><path class="cls-8" d="M3267.55,2776.35c999.36-581.64,1646.71-1618,1730-2769.53C4556.46,1505,3348.11,2580,1916.14,2915.3H3003.66Q3137.85,2851.77,3267.55,2776.35Z" transform="translate(0 -4.08)"/><path class="cls-9" d="M3267.55,2776.35c999.36-581.64,1646.71-1618,1730-2769.53C4556.46,1505,3348.11,2580,1916.14,2915.3H3003.66Q3137.85,2851.77,3267.55,2776.35Z" transform="translate(0 -4.08)"/></g></g><g class="cls-12"><g class="cls-13"><path class="cls-8" d="M1916.14,2915.3C3348.11,2580,4556.46,1505,4997.54,6.82c-898.2,1732.85-2658.33,2836-4591.18,2908.48Z" transform="translate(0 -4.08)"/><path class="cls-9" d="M1916.14,2915.3C3348.11,2580,4556.46,1505,4997.54,6.82c-898.2,1732.85-2658.33,2836-4591.18,2908.48Z" transform="translate(0 -4.08)"/></g></g></g></g></svg>